<svg width="36" height="36" viewBox="0 0 36 36" fill="none" xmlns="http://www.w3.org/2000/svg">
  <path
    d="M25.5791 30.0348C25.8725 30.5431 25.713 31.1963 25.1956 31.4733C23.0515 32.6211 20.6022 33.2728 18.0003 33.2728C15.4721 33.2728 13.0876 32.6582 10.9876 31.5707C10.4617 31.2983 10.2961 30.6389 10.5923 30.126L17.1674 18.7378C17.5873 18.0105 18.637 18.0105 19.0569 18.7378L25.5791 30.0348Z"
    fill="black" />
  <path
    d="M18.0003 2.72729C26.4352 2.72729 33.273 9.56513 33.273 18C33.273 21.1683 32.3075 24.1106 30.6556 26.5503C30.437 26.8733 29.9614 26.8443 29.7664 26.5065L20.4463 10.3637C19.9649 9.5298 19.075 9.01604 18.1121 9.016C17.2093 9.016 16.3707 9.46767 15.8728 10.2113L15.778 10.3637L6.35491 26.6837C6.16146 27.0187 5.69101 27.0508 5.46951 26.7336C3.74128 24.2585 2.72754 21.2477 2.72754 18C2.72754 9.56513 9.56537 2.72729 18.0003 2.72729Z"
    fill="black" />
</svg>